<svg xmlns="http://www.w3.org/2000/svg" viewBox="0 0 24 24" role="img" aria-label="Google">
  <path fill="#4285F4" d="M21.35 11.1h-9.18v3.71h5.28c-.23 1.19-.9 2.2-1.9 2.88v2.39h3.08c1.8-1.66 2.84-4.11 2.84-7.02 0-.68-.06-1.34-.18-1.96z"/>
  <path fill="#34A853" d="M12.17 21.5c2.57 0 4.73-.85 6.31-2.31l-3.08-2.39c-.85.57-1.94.91-3.23.91-2.48 0-4.58-1.68-5.33-3.93H3.66v2.47c1.57 3.12 4.8 5.25 8.51 5.25z"/>
  <path fill="#FBBC05" d="M6.84 13.78a5.46 5.46 0 0 1 0-3.62V7.69H3.66A9.48 9.48 0 0 0 2.65 12c0 1.53.37 2.98 1.01 4.31l3.18-2.53z"/>
  <path fill="#EA4335" d="M12.17 6.29c1.4 0 2.65.48 3.64 1.42l2.73-2.73C16.89 3.44 14.74 2.5 12.17 2.5c-3.71 0-6.94 2.13-8.51 5.19l3.18 2.47c.75-2.19 2.85-3.87 5.33-3.87z"/>
</svg>
